<svg xmlns="http://www.w3.org/2000/svg" width="53.264" height="53.264" viewBox="0 0 53.264 53.264">
  <path id="Path_40" data-name="Path 40" d="M26.632,4.735c7.1,0,7.99,0,10.653.3a13.725,13.725,0,0,1,5.03.888,10.392,10.392,0,0,1,5.03,5.03,13.725,13.725,0,0,1,.888,5.03c0,2.663.3,3.551.3,10.653s0,7.99-.3,10.653a13.725,13.725,0,0,1-.888,5.03,10.392,10.392,0,0,1-5.03,5.03,13.725,13.725,0,0,1-5.03.888c-2.663,0-3.551.3-10.653.3s-7.99,0-10.653-.3a13.725,13.725,0,0,1-5.03-.888,10.392,10.392,0,0,1-5.03-5.03,13.725,13.725,0,0,1-.888-5.03c0-2.663-.3-3.551-.3-10.653s0-7.99.3-10.653a13.725,13.725,0,0,1,.888-5.03A10.628,10.628,0,0,1,7.99,7.99a5,5,0,0,1,2.959-2.071,13.725,13.725,0,0,1,5.03-.888c2.663-.3,3.551-.3,10.653-.3m0-4.735c-7.1,0-8.285,0-10.949.3A18.268,18.268,0,0,0,9.173,1.48,11.584,11.584,0,0,0,4.439,4.439,11.584,11.584,0,0,0,1.48,9.173,13.483,13.483,0,0,0,.3,15.683C0,18.346,0,19.53,0,26.632S0,34.917.3,37.58A18.268,18.268,0,0,0,1.48,44.09a11.584,11.584,0,0,0,2.959,4.735,11.584,11.584,0,0,0,4.735,2.959,18.268,18.268,0,0,0,6.51,1.184c2.663.3,3.847.3,10.949.3s8.285,0,10.949-.3a18.268,18.268,0,0,0,6.51-1.184,12.415,12.415,0,0,0,7.694-7.694,18.268,18.268,0,0,0,1.184-6.51c0-2.959.3-3.847.3-10.949s0-8.285-.3-10.949a18.268,18.268,0,0,0-1.184-6.51,11.584,11.584,0,0,0-2.959-4.735A11.584,11.584,0,0,0,44.09,1.48,18.268,18.268,0,0,0,37.58.3C34.917,0,33.734,0,26.632,0m0,13.02A13.393,13.393,0,0,0,13.02,26.632,13.612,13.612,0,1,0,26.632,13.02m0,22.489a8.719,8.719,0,0,1-8.877-8.877,8.719,8.719,0,0,1,8.877-8.877,8.719,8.719,0,0,1,8.877,8.877,8.719,8.719,0,0,1-8.877,8.877m14.2-26.336a3.255,3.255,0,1,0,3.255,3.255,3.284,3.284,0,0,0-3.255-3.255" fill="#9e4953" fill-rule="evenodd"/>
</svg>
