<svg xmlns="http://www.w3.org/2000/svg" width="66.437" height="53.887" viewBox="0 0 66.437 53.887">
  <path id="Path_39" data-name="Path 39" d="M59.038,55.888c25.1,0,38.755-20.669,38.755-38.755V15.287a30,30,0,0,0,6.644-7.013,30.64,30.64,0,0,1-7.751,2.215,14.36,14.36,0,0,0,5.905-7.382A33.854,33.854,0,0,1,94.1,6.429,13.182,13.182,0,0,0,84.137,2,13.867,13.867,0,0,0,70.48,15.656a7.2,7.2,0,0,0,.369,2.953A38.16,38.16,0,0,1,42.8,4.215a14.135,14.135,0,0,0-1.845,7.013,14.665,14.665,0,0,0,5.905,11.442,12.443,12.443,0,0,1-6.275-1.845h0A13.489,13.489,0,0,0,51.656,34.111a11.379,11.379,0,0,1-3.691.369,6.281,6.281,0,0,1-2.584-.369,13.983,13.983,0,0,0,12.918,9.6,27.867,27.867,0,0,1-16.978,5.905A10.219,10.219,0,0,1,38,49.244a34.838,34.838,0,0,0,21.038,6.644" transform="translate(-38 -2)" fill="#9e4953" fill-rule="evenodd"/>
</svg>
